<mxfile host="app.diagrams.net" agent="Mozilla/5.0 (X11; Ubuntu; Linux x86_64; rv:134.0) Gecko/20100101 Firefox/134.0" version="26.0.4">
  <diagram name="Page-1" id="-lBoYIMHN9mWRMna8E1Z">
    <mxGraphModel dx="1793" dy="906" grid="1" gridSize="10" guides="1" tooltips="1" connect="1" arrows="1" fold="1" page="1" pageScale="1" pageWidth="827" pageHeight="1169" math="0" shadow="0">
      <root>
        <mxCell id="0" />
        <mxCell id="1" parent="0" />
        <mxCell id="h1Nr3Nk1ewhvbrp1cEd7-1" value="NEW IMG" style="rounded=0;whiteSpace=wrap;html=1;fillColor=none;strokeWidth=2;" vertex="1" parent="1">
          <mxGeometry x="20" y="240" width="270" height="160" as="geometry" />
        </mxCell>
        <mxCell id="h1Nr3Nk1ewhvbrp1cEd7-2" value="MAP" style="rounded=0;whiteSpace=wrap;html=1;fillColor=none;" vertex="1" parent="1">
          <mxGeometry x="250" y="200" width="120" height="80" as="geometry" />
        </mxCell>
        <mxCell id="h1Nr3Nk1ewhvbrp1cEd7-3" value="&lt;div&gt;IMAGE DRAWER&lt;/div&gt;&lt;div&gt;&lt;br&gt;&lt;/div&gt;&lt;div&gt;ft_image_drawer(GAME STATE, *NEW_IMG, *MAP, **IMGS_SETS)&lt;br&gt;&lt;/div&gt;" style="rounded=0;whiteSpace=wrap;html=1;strokeWidth=2;" vertex="1" parent="1">
          <mxGeometry x="500" y="240" width="280" height="160" as="geometry" />
        </mxCell>
        <mxCell id="h1Nr3Nk1ewhvbrp1cEd7-4" value="IMAGES SET GLOBAL" style="rounded=0;whiteSpace=wrap;html=1;strokeWidth=2;" vertex="1" parent="1">
          <mxGeometry x="500" y="480" width="280" height="80" as="geometry" />
        </mxCell>
        <mxCell id="h1Nr3Nk1ewhvbrp1cEd7-5" value="IMAGES SET LEFT" style="rounded=0;whiteSpace=wrap;html=1;strokeWidth=2;" vertex="1" parent="1">
          <mxGeometry x="500" y="600" width="280" height="80" as="geometry" />
        </mxCell>
        <mxCell id="h1Nr3Nk1ewhvbrp1cEd7-6" value="IMAGES SET RIGHT" style="rounded=0;whiteSpace=wrap;html=1;strokeWidth=2;" vertex="1" parent="1">
          <mxGeometry x="500" y="720" width="280" height="80" as="geometry" />
        </mxCell>
        <mxCell id="h1Nr3Nk1ewhvbrp1cEd7-8" value="" style="endArrow=none;html=1;rounded=0;entryX=0;entryY=0.75;entryDx=0;entryDy=0;strokeWidth=2;" edge="1" parent="1" target="h1Nr3Nk1ewhvbrp1cEd7-3">
          <mxGeometry width="50" height="50" relative="1" as="geometry">
            <mxPoint x="460" y="360" as="sourcePoint" />
            <mxPoint x="420" y="550" as="targetPoint" />
          </mxGeometry>
        </mxCell>
        <mxCell id="h1Nr3Nk1ewhvbrp1cEd7-9" value="" style="endArrow=none;html=1;rounded=0;strokeWidth=2;" edge="1" parent="1">
          <mxGeometry width="50" height="50" relative="1" as="geometry">
            <mxPoint x="460" y="520" as="sourcePoint" />
            <mxPoint x="460" y="360" as="targetPoint" />
          </mxGeometry>
        </mxCell>
        <mxCell id="h1Nr3Nk1ewhvbrp1cEd7-10" value="" style="endArrow=classic;html=1;rounded=0;entryX=0;entryY=0.5;entryDx=0;entryDy=0;strokeWidth=2;" edge="1" parent="1" target="h1Nr3Nk1ewhvbrp1cEd7-4">
          <mxGeometry width="50" height="50" relative="1" as="geometry">
            <mxPoint x="460" y="520" as="sourcePoint" />
            <mxPoint x="420" y="550" as="targetPoint" />
          </mxGeometry>
        </mxCell>
        <mxCell id="h1Nr3Nk1ewhvbrp1cEd7-11" value="" style="endArrow=none;html=1;rounded=0;strokeColor=#FF0F0F;endSize=11;strokeWidth=2;" edge="1" parent="1">
          <mxGeometry width="50" height="50" relative="1" as="geometry">
            <mxPoint x="460" y="640" as="sourcePoint" />
            <mxPoint x="460" y="520" as="targetPoint" />
          </mxGeometry>
        </mxCell>
        <mxCell id="h1Nr3Nk1ewhvbrp1cEd7-12" value="" style="endArrow=classic;html=1;rounded=0;entryX=0;entryY=0.5;entryDx=0;entryDy=0;strokeColor=light-dark(#e01b24, #ededed);strokeWidth=2;" edge="1" parent="1" target="h1Nr3Nk1ewhvbrp1cEd7-5">
          <mxGeometry width="50" height="50" relative="1" as="geometry">
            <mxPoint x="460" y="640" as="sourcePoint" />
            <mxPoint x="420" y="670" as="targetPoint" />
          </mxGeometry>
        </mxCell>
        <mxCell id="h1Nr3Nk1ewhvbrp1cEd7-13" value="" style="endArrow=none;html=1;rounded=0;strokeColor=light-dark(#33d17a, #ff9090);strokeWidth=2;" edge="1" parent="1">
          <mxGeometry width="50" height="50" relative="1" as="geometry">
            <mxPoint x="460" y="760" as="sourcePoint" />
            <mxPoint x="460" y="640" as="targetPoint" />
          </mxGeometry>
        </mxCell>
        <mxCell id="h1Nr3Nk1ewhvbrp1cEd7-14" value="" style="endArrow=classic;html=1;rounded=0;entryX=0;entryY=0.5;entryDx=0;entryDy=0;strokeColor=#33D17A;strokeWidth=2;" edge="1" parent="1" target="h1Nr3Nk1ewhvbrp1cEd7-6">
          <mxGeometry width="50" height="50" relative="1" as="geometry">
            <mxPoint x="460" y="760" as="sourcePoint" />
            <mxPoint x="420" y="570" as="targetPoint" />
          </mxGeometry>
        </mxCell>
        <mxCell id="h1Nr3Nk1ewhvbrp1cEd7-16" value="" style="endArrow=none;html=1;rounded=0;strokeColor=light-dark(#33d17a, #ff9090);strokeWidth=2;" edge="1" parent="1">
          <mxGeometry width="50" height="50" relative="1" as="geometry">
            <mxPoint x="540" y="840" as="sourcePoint" />
            <mxPoint x="500" y="840" as="targetPoint" />
          </mxGeometry>
        </mxCell>
        <mxCell id="h1Nr3Nk1ewhvbrp1cEd7-17" value="" style="endArrow=classic;html=1;rounded=0;entryX=0;entryY=0.5;entryDx=0;entryDy=0;strokeColor=light-dark(#e01b24, #ededed);strokeWidth=2;" edge="1" parent="1">
          <mxGeometry width="50" height="50" relative="1" as="geometry">
            <mxPoint x="500" y="880" as="sourcePoint" />
            <mxPoint x="540" y="880" as="targetPoint" />
          </mxGeometry>
        </mxCell>
        <mxCell id="h1Nr3Nk1ewhvbrp1cEd7-18" value="" style="endArrow=classic;html=1;rounded=0;entryX=0;entryY=0.5;entryDx=0;entryDy=0;strokeColor=#33D17A;strokeWidth=2;" edge="1" parent="1">
          <mxGeometry width="50" height="50" relative="1" as="geometry">
            <mxPoint x="500" y="840" as="sourcePoint" />
            <mxPoint x="540" y="840" as="targetPoint" />
          </mxGeometry>
        </mxCell>
        <mxCell id="h1Nr3Nk1ewhvbrp1cEd7-19" value="GAME STATE = RIGHT" style="text;html=1;align=center;verticalAlign=middle;whiteSpace=wrap;rounded=0;" vertex="1" parent="1">
          <mxGeometry x="560" y="820" width="180" height="40" as="geometry" />
        </mxCell>
        <mxCell id="h1Nr3Nk1ewhvbrp1cEd7-20" value="GAME STATE = LEFT" style="text;html=1;align=center;verticalAlign=middle;whiteSpace=wrap;rounded=0;" vertex="1" parent="1">
          <mxGeometry x="560" y="860" width="180" height="40" as="geometry" />
        </mxCell>
        <mxCell id="h1Nr3Nk1ewhvbrp1cEd7-22" value="" style="endArrow=none;html=1;rounded=0;exitX=0.605;exitY=-0.005;exitDx=0;exitDy=0;exitPerimeter=0;strokeWidth=2;" edge="1" parent="1" source="h1Nr3Nk1ewhvbrp1cEd7-2">
          <mxGeometry width="50" height="50" relative="1" as="geometry">
            <mxPoint x="370" y="530" as="sourcePoint" />
            <mxPoint x="320" y="160" as="targetPoint" />
            <Array as="points">
              <mxPoint x="320" y="200" />
            </Array>
          </mxGeometry>
        </mxCell>
        <mxCell id="h1Nr3Nk1ewhvbrp1cEd7-23" value="" style="endArrow=none;html=1;rounded=0;strokeWidth=2;" edge="1" parent="1">
          <mxGeometry width="50" height="50" relative="1" as="geometry">
            <mxPoint x="320" y="160" as="sourcePoint" />
            <mxPoint x="640" y="160" as="targetPoint" />
          </mxGeometry>
        </mxCell>
        <mxCell id="h1Nr3Nk1ewhvbrp1cEd7-24" value="&lt;b&gt;&lt;font style=&quot;font-size: 17px; color: rgb(255, 0, 0);&quot;&gt;1&lt;/font&gt;&lt;/b&gt;" style="text;html=1;align=center;verticalAlign=middle;whiteSpace=wrap;rounded=0;" vertex="1" parent="1">
          <mxGeometry x="460" y="160" width="60" height="30" as="geometry" />
        </mxCell>
        <mxCell id="h1Nr3Nk1ewhvbrp1cEd7-26" value="" style="endArrow=classic;html=1;rounded=0;strokeWidth=2;" edge="1" parent="1" target="h1Nr3Nk1ewhvbrp1cEd7-3">
          <mxGeometry width="50" height="50" relative="1" as="geometry">
            <mxPoint x="640" y="160" as="sourcePoint" />
            <mxPoint x="420" y="480" as="targetPoint" />
          </mxGeometry>
        </mxCell>
        <mxCell id="h1Nr3Nk1ewhvbrp1cEd7-27" value="" style="endArrow=classic;html=1;rounded=0;entryX=1.012;entryY=0.392;entryDx=0;entryDy=0;entryPerimeter=0;exitX=0.007;exitY=0.397;exitDx=0;exitDy=0;exitPerimeter=0;strokeWidth=2;" edge="1" parent="1" source="h1Nr3Nk1ewhvbrp1cEd7-3">
          <mxGeometry width="50" height="50" relative="1" as="geometry">
            <mxPoint x="490" y="300" as="sourcePoint" />
            <mxPoint x="290" y="302.72" as="targetPoint" />
          </mxGeometry>
        </mxCell>
        <mxCell id="h1Nr3Nk1ewhvbrp1cEd7-28" value="&lt;font style=&quot;font-size: 16px; color: rgb(255, 0, 0);&quot;&gt;&lt;b&gt;2&lt;/b&gt;&lt;/font&gt;" style="text;html=1;align=center;verticalAlign=middle;whiteSpace=wrap;rounded=0;" vertex="1" parent="1">
          <mxGeometry x="390" y="450" width="60" height="30" as="geometry" />
        </mxCell>
        <mxCell id="h1Nr3Nk1ewhvbrp1cEd7-29" value="&lt;b&gt;&lt;font style=&quot;font-size: 16px; color: rgb(255, 0, 0);&quot;&gt;3&lt;/font&gt;&lt;/b&gt;" style="text;html=1;align=center;verticalAlign=middle;whiteSpace=wrap;rounded=0;" vertex="1" parent="1">
          <mxGeometry x="370" y="310" width="60" height="30" as="geometry" />
        </mxCell>
      </root>
    </mxGraphModel>
  </diagram>
</mxfile>
